<svg id="visual" viewBox="0 0 900 600" width="900" height="600" xmlns="http://www.w3.org/2000/svg" xmlns:xlink="http://www.w3.org/1999/xlink" version="1.1"><g stroke-width="1" stroke-linejoin="bevel"><path d="M510 296L388 324L471 366Z" fill="#36878c" stroke="#36878c"></path><path d="M388 324L401 365L471 366Z" fill="#6db3af" stroke="#6db3af"></path><path d="M510 296L365 216L388 324Z" fill="#297e85" stroke="#297e85"></path><path d="M510 296L492 174L365 216Z" fill="#83c5be" stroke="#83c5be"></path><path d="M632 432L603 277L510 296Z" fill="#297e85" stroke="#297e85"></path><path d="M510 296L591 174L492 174Z" fill="#19757e" stroke="#19757e"></path><path d="M339 75L301 209L365 216Z" fill="#36878c" stroke="#36878c"></path><path d="M365 216L273 263L388 324Z" fill="#36878c" stroke="#36878c"></path><path d="M388 324L263 432L401 365Z" fill="#297e85" stroke="#297e85"></path><path d="M301 209L273 263L365 216Z" fill="#297e85" stroke="#297e85"></path><path d="M591 174L490 120L492 174Z" fill="#428f93" stroke="#428f93"></path><path d="M492 174L411 115L365 216Z" fill="#63aaa8" stroke="#63aaa8"></path><path d="M603 277L591 174L510 296Z" fill="#83c5be" stroke="#83c5be"></path><path d="M490 120L411 115L492 174Z" fill="#297e85" stroke="#297e85"></path><path d="M263 432L377 491L401 365Z" fill="#63aaa8" stroke="#63aaa8"></path><path d="M401 365L377 491L471 366Z" fill="#78bcb7" stroke="#78bcb7"></path><path d="M471 366L632 432L510 296Z" fill="#297e85" stroke="#297e85"></path><path d="M377 491L533 508L471 366Z" fill="#4d989a" stroke="#4d989a"></path><path d="M533 508L632 432L471 366Z" fill="#83c5be" stroke="#83c5be"></path><path d="M603 277L689 208L591 174Z" fill="#83c5be" stroke="#83c5be"></path><path d="M216 368L263 432L388 324Z" fill="#83c5be" stroke="#83c5be"></path><path d="M632 432L673 334L603 277Z" fill="#63aaa8" stroke="#63aaa8"></path><path d="M273 263L216 368L388 324Z" fill="#36878c" stroke="#36878c"></path><path d="M163 329L216 368L273 263Z" fill="#83c5be" stroke="#83c5be"></path><path d="M339 75L227 205L301 209Z" fill="#4d989a" stroke="#4d989a"></path><path d="M301 209L227 205L273 263Z" fill="#428f93" stroke="#428f93"></path><path d="M263 432L260 466L377 491Z" fill="#83c5be" stroke="#83c5be"></path><path d="M220 460L260 466L263 432Z" fill="#36878c" stroke="#36878c"></path><path d="M702 529L668 420L632 432Z" fill="#428f93" stroke="#428f93"></path><path d="M632 432L668 420L673 334Z" fill="#19757e" stroke="#19757e"></path><path d="M373 0L339 75L411 115Z" fill="#006d77" stroke="#006d77"></path><path d="M411 115L339 75L365 216Z" fill="#63aaa8" stroke="#63aaa8"></path><path d="M673 334L689 208L603 277Z" fill="#006d77" stroke="#006d77"></path><path d="M591 174L626 61L490 120Z" fill="#4d989a" stroke="#4d989a"></path><path d="M739 118L689 208L799 234Z" fill="#19757e" stroke="#19757e"></path><path d="M533 508L611 527L632 432Z" fill="#83c5be" stroke="#83c5be"></path><path d="M625 600L611 527L533 508Z" fill="#78bcb7" stroke="#78bcb7"></path><path d="M216 368L220 460L263 432Z" fill="#4d989a" stroke="#4d989a"></path><path d="M385 600L486 600L377 491Z" fill="#83c5be" stroke="#83c5be"></path><path d="M227 205L163 329L273 263Z" fill="#428f93" stroke="#428f93"></path><path d="M216 368L135 367L220 460Z" fill="#4d989a" stroke="#4d989a"></path><path d="M385 600L377 491L262 600Z" fill="#4d989a" stroke="#4d989a"></path><path d="M377 491L486 600L533 508Z" fill="#58a1a1" stroke="#58a1a1"></path><path d="M262 600L377 491L260 466Z" fill="#83c5be" stroke="#83c5be"></path><path d="M689 208L626 61L591 174Z" fill="#297e85" stroke="#297e85"></path><path d="M490 120L512 0L411 115Z" fill="#58a1a1" stroke="#58a1a1"></path><path d="M626 61L512 0L490 120Z" fill="#58a1a1" stroke="#58a1a1"></path><path d="M512 0L373 0L411 115Z" fill="#36878c" stroke="#36878c"></path><path d="M339 75L163 124L227 205Z" fill="#428f93" stroke="#428f93"></path><path d="M163 329L135 367L216 368Z" fill="#428f93" stroke="#428f93"></path><path d="M67 336L135 367L163 329Z" fill="#36878c" stroke="#36878c"></path><path d="M373 0L333 0L339 75Z" fill="#19757e" stroke="#19757e"></path><path d="M227 205L65 176L163 329Z" fill="#6db3af" stroke="#6db3af"></path><path d="M625 600L702 529L611 527Z" fill="#428f93" stroke="#428f93"></path><path d="M611 527L702 529L632 432Z" fill="#006d77" stroke="#006d77"></path><path d="M808 289L689 208L673 334Z" fill="#58a1a1" stroke="#58a1a1"></path><path d="M212 0L163 124L339 75Z" fill="#58a1a1" stroke="#58a1a1"></path><path d="M486 600L625 600L533 508Z" fill="#428f93" stroke="#428f93"></path><path d="M220 460L262 600L260 466Z" fill="#63aaa8" stroke="#63aaa8"></path><path d="M181 600L262 600L220 460Z" fill="#19757e" stroke="#19757e"></path><path d="M689 208L739 118L626 61Z" fill="#63aaa8" stroke="#63aaa8"></path><path d="M626 61L628 0L512 0Z" fill="#63aaa8" stroke="#63aaa8"></path><path d="M799 234L689 208L808 289Z" fill="#58a1a1" stroke="#58a1a1"></path><path d="M669 0L628 0L626 61Z" fill="#6db3af" stroke="#6db3af"></path><path d="M808 289L673 334L820 415Z" fill="#83c5be" stroke="#83c5be"></path><path d="M820 415L673 334L668 420Z" fill="#58a1a1" stroke="#58a1a1"></path><path d="M739 118L669 0L626 61Z" fill="#63aaa8" stroke="#63aaa8"></path><path d="M65 176L67 336L163 329Z" fill="#36878c" stroke="#36878c"></path><path d="M135 367L130 528L220 460Z" fill="#19757e" stroke="#19757e"></path><path d="M784 530L820 415L668 420Z" fill="#4d989a" stroke="#4d989a"></path><path d="M0 438L130 528L135 367Z" fill="#4d989a" stroke="#4d989a"></path><path d="M333 0L212 0L339 75Z" fill="#006d77" stroke="#006d77"></path><path d="M163 124L65 176L227 205Z" fill="#63aaa8" stroke="#63aaa8"></path><path d="M212 0L120 100L163 124Z" fill="#428f93" stroke="#428f93"></path><path d="M625 600L708 600L702 529Z" fill="#36878c" stroke="#36878c"></path><path d="M702 529L784 530L668 420Z" fill="#83c5be" stroke="#83c5be"></path><path d="M130 528L181 600L220 460Z" fill="#83c5be" stroke="#83c5be"></path><path d="M708 600L784 530L702 529Z" fill="#6db3af" stroke="#6db3af"></path><path d="M120 100L65 176L163 124Z" fill="#428f93" stroke="#428f93"></path><path d="M130 528L124 600L181 600Z" fill="#83c5be" stroke="#83c5be"></path><path d="M0 600L124 600L130 528Z" fill="#006d77" stroke="#006d77"></path><path d="M799 234L839 111L739 118Z" fill="#83c5be" stroke="#83c5be"></path><path d="M739 118L763 0L669 0Z" fill="#58a1a1" stroke="#58a1a1"></path><path d="M900 211L839 111L799 234Z" fill="#83c5be" stroke="#83c5be"></path><path d="M900 211L799 234L808 289Z" fill="#006d77" stroke="#006d77"></path><path d="M839 111L763 0L739 118Z" fill="#006d77" stroke="#006d77"></path><path d="M900 388L900 337L820 415Z" fill="#6db3af" stroke="#6db3af"></path><path d="M708 600L781 600L784 530Z" fill="#4d989a" stroke="#4d989a"></path><path d="M0 238L0 282L67 336Z" fill="#6db3af" stroke="#6db3af"></path><path d="M67 336L0 438L135 367Z" fill="#83c5be" stroke="#83c5be"></path><path d="M900 388L820 415L900 515Z" fill="#63aaa8" stroke="#63aaa8"></path><path d="M820 415L900 337L808 289Z" fill="#006d77" stroke="#006d77"></path><path d="M0 72L0 238L65 176Z" fill="#297e85" stroke="#297e85"></path><path d="M65 176L0 238L67 336Z" fill="#428f93" stroke="#428f93"></path><path d="M900 515L820 415L784 530Z" fill="#006d77" stroke="#006d77"></path><path d="M900 337L900 211L808 289Z" fill="#19757e" stroke="#19757e"></path><path d="M0 282L0 438L67 336Z" fill="#297e85" stroke="#297e85"></path><path d="M212 0L86 0L120 100Z" fill="#6db3af" stroke="#6db3af"></path><path d="M120 100L0 72L65 176Z" fill="#58a1a1" stroke="#58a1a1"></path><path d="M0 438L0 484L130 528Z" fill="#63aaa8" stroke="#63aaa8"></path><path d="M900 211L900 104L839 111Z" fill="#006d77" stroke="#006d77"></path><path d="M839 111L900 0L763 0Z" fill="#428f93" stroke="#428f93"></path><path d="M900 600L900 515L784 530Z" fill="#428f93" stroke="#428f93"></path><path d="M86 0L0 72L120 100Z" fill="#58a1a1" stroke="#58a1a1"></path><path d="M0 484L0 600L130 528Z" fill="#006d77" stroke="#006d77"></path><path d="M781 600L900 600L784 530Z" fill="#83c5be" stroke="#83c5be"></path><path d="M86 0L0 0L0 72Z" fill="#4d989a" stroke="#4d989a"></path><path d="M900 104L900 0L839 111Z" fill="#297e85" stroke="#297e85"></path></g></svg>